<svg height="480pt" viewBox="-16 0 480 480" width="480pt" xmlns="http://www.w3.org/2000/svg"><path d="m424 0h-256c-13.253906 0-24 10.746094-24 24v152h16v-152c0-4.417969 3.582031-8 8-8h184v56c0 3.234375 1.949219 6.152344 4.9375 7.390625s6.429688.550781 8.71875-1.734375l18.34375-18.34375 18.34375 18.34375c2.289062 2.285156 5.730469 2.972656 8.71875 1.734375s4.9375-4.15625 4.9375-7.390625v-56h8c4.417969 0 8 3.582031 8 8v376c0 4.417969-3.582031 8-8 8h-144v16h144c13.253906 0 24-10.746094 24-24v-376c0-13.253906-10.746094-24-24-24zm-24 52.6875-10.34375-10.34375c-3.125-3.121094-8.1875-3.121094-11.3125 0l-10.34375 10.34375v-36.6875h32zm0 0"/><path d="m244.625 385.175781c2.011719-4.152343 3.769531-8.429687 5.253906-12.800781l31.257813-4.464844c3.9375-.5625 6.859375-3.933594 6.863281-7.910156v-48c0-3.980469-2.925781-7.355469-6.863281-7.921875l-31.257813-4.460937c-1.484375-4.371094-3.242187-8.648438-5.253906-12.800782l18.910156-25.214844c2.390625-3.183593 2.078125-7.640624-.734375-10.457031l-33.953125-33.945312c-2.8125-2.808594-7.265625-3.125-10.449218-.742188l-25.230469 18.910157c-4.152344-2.015626-8.429688-3.769532-12.800781-5.253907l-4.464844-31.25c-.5625-3.933593-3.929688-6.855469-7.902344-6.863281h-48c-3.984375 0-7.359375 2.929688-7.921875 6.871094l-4.460937 31.25c-4.371094 1.484375-8.648438 3.238281-12.800782 5.253906l-25.214844-18.910156c-3.183593-2.382813-7.636718-2.066406-10.449218.742187l-33.953125 33.945313c-2.808594 2.816406-3.121094 7.265625-.734375 10.449218l18.910156 25.214844c-2.011719 4.152344-3.769531 8.429688-5.253906 12.800782l-31.257813 4.460937c-3.9375.566406-6.863281 3.941406-6.863281 7.921875v48c0 3.980469 2.925781 7.355469 6.863281 7.921875l31.257813 4.460937c1.484375 4.371094 3.242187 8.648438 5.253906 12.800782l-18.910156 25.214844c-2.390625 3.183593-2.078125 7.640624.734375 10.457031l33.953125 33.945312c2.8125 2.808594 7.265625 3.125 10.449218.742188l25.222657-18.910157c4.152343 2.015626 8.429687 3.769532 12.800781 5.253907l4.464844 31.25c.5625 3.9375 3.933594 6.859375 7.910156 6.863281h48c3.984375 0 7.359375-2.929688 7.921875-6.871094l4.460937-31.25c4.371094-1.484375 8.648438-3.238281 12.800782-5.253906l25.214844 18.910156c3.183593 2.382813 7.636718 2.066406 10.449218-.742187l33.953125-33.945313c2.8125-2.816406 3.125-7.273437.734375-10.457031zm-22.175781 53.398438-23.6875-17.773438c-2.511719-1.886719-5.894531-2.125-8.648438-.617187-6.09375 3.324218-12.53125 5.972656-19.203125 7.894531-3.011718.882813-5.234375 3.445313-5.679687 6.554687l-4.167969 29.367188h-34.125l-4.183594-29.351562c-.445312-3.109376-2.667968-5.671876-5.683594-6.550782-6.667968-1.925781-13.105468-4.574218-19.199218-7.898437-2.753906-1.507813-6.136719-1.269531-8.648438.617187l-23.6875 17.757813-24.109375-24.125 17.757813-23.6875c1.886718-2.511719 2.125-5.894531.617187-8.648438-3.324219-6.09375-5.96875-12.535156-7.898437-19.203125-.875-3.011718-3.4375-5.230468-6.542969-5.679687l-29.359375-4.167969v-34.125l29.359375-4.195312c3.105469-.445313 5.667969-2.664063 6.542969-5.679688 1.929687-6.667969 4.574218-13.105469 7.898437-19.199219 1.507813-2.753906 1.269531-6.136719-.617187-8.648437l-17.757813-23.6875 24.125-24.128906 23.6875 17.761718c2.511719 1.886719 5.894531 2.125 8.648438.617188 6.097656-3.320313 12.535156-5.96875 19.203125-7.898438 3.011718-.878906 5.234375-3.441406 5.679687-6.550781l4.167969-29.328125h34.125l4.183594 29.351562c.445312 3.109376 2.667968 5.671876 5.683594 6.550782 6.664062 1.933594 13.101562 4.578125 19.199218 7.898437 2.753906 1.507813 6.136719 1.269531 8.648438-.617187l23.6875-17.757813 24.128906 24.125-17.792969 23.6875c-1.886719 2.511719-2.125 5.894531-.617187 8.648438 3.320312 6.09375 5.96875 12.535156 7.894531 19.203125.878906 3.011718 3.4375 5.230468 6.546875 5.679687l29.359375 4.191407v34.128906l-29.359375 4.191406c-3.109375.445312-5.667969 2.664062-6.546875 5.679688-1.925781 6.667968-4.574219 13.105468-7.894531 19.199218-1.507813 2.753906-1.269532 6.136719.617187 8.648438l17.757813 23.6875zm0 0"/><path d="m136 224h16v16h-16zm0 0"/><path d="m59.15625 262.457031 11.3125-11.3125 11.3125 11.3125-11.3125 11.316407zm0 0"/><path d="m32 328h16v16h-16zm0 0"/><path d="m59.152344 409.535156 11.3125-11.316406 11.3125 11.316406-11.3125 11.3125zm0 0"/><path d="m136 432h16v16h-16zm0 0"/><path d="m206.21875 409.539062 11.3125-11.3125 11.3125 11.3125-11.3125 11.3125zm0 0"/><path d="m240 328h16v16h-16zm0 0"/><path d="m206.222656 262.464844 11.3125-11.316406 11.316406 11.316406-11.316406 11.3125zm0 0"/><path d="m144 272c-35.347656 0-64 28.652344-64 64s28.652344 64 64 64 64-28.652344 64-64c-.039062-35.328125-28.671875-63.960938-64-64zm0 112c-26.507812 0-48-21.492188-48-48s21.492188-48 48-48 48 21.492188 48 48c-.027344 26.5-21.5 47.972656-48 48zm0 0"/><path d="m192 48h48v16h-48zm0 0"/><path d="m256 48h32v16h-32zm0 0"/><path d="m192 96h128v16h-128zm0 0"/><path d="m192 160h208v16h-208zm0 0"/><path d="m304 208h96v16h-96zm0 0"/><path d="m304 256h96v16h-96zm0 0"/><path d="m304 304h96v16h-96zm0 0"/></svg>